<?xml version="1.0" encoding="utf-8" standalone="no"?>
<!DOCTYPE svg PUBLIC "-//W3C//DTD SVG 1.1//EN"
  "http://www.w3.org/Graphics/SVG/1.1/DTD/svg11.dtd">
<svg xmlns:xlink="http://www.w3.org/1999/xlink" width="453.6pt" height="302.4pt" viewBox="0 0 453.6 302.4" xmlns="http://www.w3.org/2000/svg" version="1.1">
 <metadata>
  <rdf:RDF xmlns:dc="http://purl.org/dc/elements/1.1/" xmlns:cc="http://creativecommons.org/ns#" xmlns:rdf="http://www.w3.org/1999/02/22-rdf-syntax-ns#">
   <cc:Work>
    <dc:type rdf:resource="http://purl.org/dc/dcmitype/StillImage"/>
    <dc:date>2026-09-11T18:47:16.888108</dc:date>
    <dc:format>image/svg+xml</dc:format>
    <dc:creator>
     <cc:Agent>
      <dc:title>Matplotlib v3.11.1, https://matplotlib.org/</dc:title>
     </cc:Agent>
    </dc:creator>
   </cc:Work>
  </rdf:RDF>
 </metadata>
 <defs>
  <style type="text/css">*{stroke-linejoin: round; stroke-linecap: butt}</style>
 </defs>
 <g id="figure_1">
  <g id="patch_1">
   <path d="M 0 302.4
L 453.6 302.4
L 453.6 0
L 0 0
z
" style="fill: #ffffff"/>
  </g>
  <g id="axes_1">
   <g id="patch_2">
    <path d="M 89.807149 269.89976
L 363.792851 269.89976
L 363.792851 32.621182
L 89.807149 32.621182
z
" style="fill: #ffffff"/>
   </g>
   <g id="patch_3">
    <path d="M 127.168836 172.831251
L 152.076627 129.689691
L 102.261045 129.689691
L 127.168836 172.831251
z
" clip-path="url(#pa2b0491a9c)" style="fill: none; stroke: #56b4e9; stroke-width: 0.6; stroke-linejoin: miter"/>
   </g>
   <g id="patch_4">
    <path d="M 102.261045 129.689691
L 152.076627 129.689691
L 127.168836 86.548132
L 102.261045 129.689691
z
" clip-path="url(#pa2b0491a9c)" style="fill: none; stroke: #56b4e9; stroke-width: 0.6; stroke-linejoin: miter"/>
   </g>
   <g id="patch_5">
    <path d="M 152.076627 129.689691
L 176.984418 86.548132
L 127.168836 86.548132
L 152.076627 129.689691
z
" clip-path="url(#pa2b0491a9c)" style="fill: none; stroke: #56b4e9; stroke-width: 0.6; stroke-linejoin: miter"/>
   </g>
   <g id="patch_6">
    <path d="M 127.168836 86.548132
L 176.984418 86.548132
L 152.076627 43.406572
L 127.168836 86.548132
z
" clip-path="url(#pa2b0491a9c)" style="fill: none; stroke: #56b4e9; stroke-width: 0.6; stroke-linejoin: miter"/>
   </g>
   <g id="patch_7">
    <path d="M 176.984418 86.548132
L 201.892209 43.406572
L 152.076627 43.406572
L 176.984418 86.548132
z
" clip-path="url(#pa2b0491a9c)" style="fill: none; stroke: #56b4e9; stroke-width: 0.6; stroke-linejoin: miter"/>
   </g>
   <g id="patch_8">
    <path d="M 152.076627 215.97281
L 176.984418 172.831251
L 127.168836 172.831251
L 152.076627 215.97281
z
" clip-path="url(#pa2b0491a9c)" style="fill: none; stroke: #56b4e9; stroke-width: 0.6; stroke-linejoin: miter"/>
   </g>
   <g id="patch_9">
    <path d="M 127.168836 172.831251
L 176.984418 172.831251
L 152.076627 129.689691
L 127.168836 172.831251
z
" clip-path="url(#pa2b0491a9c)" style="fill: none; stroke: #56b4e9; stroke-width: 0.6; stroke-linejoin: miter"/>
   </g>
   <g id="patch_10">
    <path d="M 176.984418 172.831251
L 201.892209 129.689691
L 152.076627 129.689691
L 176.984418 172.831251
z
" clip-path="url(#pa2b0491a9c)" style="fill: none; stroke: #56b4e9; stroke-width: 0.6; stroke-linejoin: miter"/>
   </g>
   <g id="patch_11">
    <path d="M 152.076627 129.689691
L 201.892209 129.689691
L 176.984418 86.548132
L 152.076627 129.689691
z
" clip-path="url(#pa2b0491a9c)" style="fill: none; stroke: #56b4e9; stroke-width: 0.6; stroke-linejoin: miter"/>
   </g>
   <g id="patch_12">
    <path d="M 201.892209 129.689691
L 226.8 86.548132
L 176.984418 86.548132
L 201.892209 129.689691
z
" clip-path="url(#pa2b0491a9c)" style="fill: none; stroke: #56b4e9; stroke-width: 0.6; stroke-linejoin: miter"/>
   </g>
   <g id="patch_13">
    <path d="M 176.984418 86.548132
L 226.8 86.548132
L 201.892209 43.406572
L 176.984418 86.548132
z
" clip-path="url(#pa2b0491a9c)" style="fill: none; stroke: #56b4e9; stroke-width: 0.6; stroke-linejoin: miter"/>
   </g>
   <g id="patch_14">
    <path d="M 226.8 86.548132
L 251.707791 43.406572
L 201.892209 43.406572
L 226.8 86.548132
z
" clip-path="url(#pa2b0491a9c)" style="fill: none; stroke: #56b4e9; stroke-width: 0.6; stroke-linejoin: miter"/>
   </g>
   <g id="patch_15">
    <path d="M 176.984418 259.11437
L 201.892209 215.97281
L 152.076627 215.97281
L 176.984418 259.11437
z
" clip-path="url(#pa2b0491a9c)" style="fill: none; stroke: #56b4e9; stroke-width: 0.6; stroke-linejoin: miter"/>
   </g>
   <g id="patch_16">
    <path d="M 152.076627 215.97281
L 201.892209 215.97281
L 176.984418 172.831251
L 152.076627 215.97281
z
" clip-path="url(#pa2b0491a9c)" style="fill: none; stroke: #56b4e9; stroke-width: 0.6; stroke-linejoin: miter"/>
   </g>
   <g id="patch_17">
    <path d="M 201.892209 215.97281
L 226.8 172.831251
L 176.984418 172.831251
L 201.892209 215.97281
z
" clip-path="url(#pa2b0491a9c)" style="fill: none; stroke: #56b4e9; stroke-width: 0.6; stroke-linejoin: miter"/>
   </g>
   <g id="patch_18">
    <path d="M 176.984418 172.831251
L 226.8 172.831251
L 201.892209 129.689691
L 176.984418 172.831251
z
" clip-path="url(#pa2b0491a9c)" style="fill: none; stroke: #56b4e9; stroke-width: 0.6; stroke-linejoin: miter"/>
   </g>
   <g id="patch_19">
    <path d="M 226.8 172.831251
L 251.707791 129.689691
L 201.892209 129.689691
L 226.8 172.831251
z
" clip-path="url(#pa2b0491a9c)" style="fill: none; stroke: #56b4e9; stroke-width: 0.6; stroke-linejoin: miter"/>
   </g>
   <g id="patch_20">
    <path d="M 201.892209 129.689691
L 251.707791 129.689691
L 226.8 86.548132
L 201.892209 129.689691
z
" clip-path="url(#pa2b0491a9c)" style="fill: none; stroke: #56b4e9; stroke-width: 0.6; stroke-linejoin: miter"/>
   </g>
   <g id="patch_21">
    <path d="M 251.707791 129.689691
L 276.615582 86.548132
L 226.8 86.548132
L 251.707791 129.689691
z
" clip-path="url(#pa2b0491a9c)" style="fill: none; stroke: #56b4e9; stroke-width: 0.6; stroke-linejoin: miter"/>
   </g>
   <g id="patch_22">
    <path d="M 226.8 86.548132
L 276.615582 86.548132
L 251.707791 43.406572
L 226.8 86.548132
z
" clip-path="url(#pa2b0491a9c)" style="fill: none; stroke: #56b4e9; stroke-width: 0.6; stroke-linejoin: miter"/>
   </g>
   <g id="patch_23">
    <path d="M 276.615582 86.548132
L 301.523373 43.406572
L 251.707791 43.406572
L 276.615582 86.548132
z
" clip-path="url(#pa2b0491a9c)" style="fill: none; stroke: #56b4e9; stroke-width: 0.6; stroke-linejoin: miter"/>
   </g>
   <g id="patch_24">
    <path d="M 176.984418 259.11437
L 226.8 259.11437
L 201.892209 215.97281
L 176.984418 259.11437
z
" clip-path="url(#pa2b0491a9c)" style="fill: none; stroke: #56b4e9; stroke-width: 0.6; stroke-linejoin: miter"/>
   </g>
   <g id="patch_25">
    <path d="M 226.8 259.11437
L 251.707791 215.97281
L 201.892209 215.97281
L 226.8 259.11437
z
" clip-path="url(#pa2b0491a9c)" style="fill: none; stroke: #56b4e9; stroke-width: 0.6; stroke-linejoin: miter"/>
   </g>
   <g id="patch_26">
    <path d="M 201.892209 215.97281
L 251.707791 215.97281
L 226.8 172.831251
L 201.892209 215.97281
z
" clip-path="url(#pa2b0491a9c)" style="fill: none; stroke: #56b4e9; stroke-width: 0.6; stroke-linejoin: miter"/>
   </g>
   <g id="patch_27">
    <path d="M 251.707791 215.97281
L 276.615582 172.831251
L 226.8 172.831251
L 251.707791 215.97281
z
" clip-path="url(#pa2b0491a9c)" style="fill: none; stroke: #56b4e9; stroke-width: 0.6; stroke-linejoin: miter"/>
   </g>
   <g id="patch_28">
    <path d="M 226.8 172.831251
L 276.615582 172.831251
L 251.707791 129.689691
L 226.8 172.831251
z
" clip-path="url(#pa2b0491a9c)" style="fill: none; stroke: #56b4e9; stroke-width: 0.6; stroke-linejoin: miter"/>
   </g>
   <g id="patch_29">
    <path d="M 276.615582 172.831251
L 301.523373 129.689691
L 251.707791 129.689691
L 276.615582 172.831251
z
" clip-path="url(#pa2b0491a9c)" style="fill: none; stroke: #56b4e9; stroke-width: 0.6; stroke-linejoin: miter"/>
   </g>
   <g id="patch_30">
    <path d="M 251.707791 129.689691
L 301.523373 129.689691
L 276.615582 86.548132
L 251.707791 129.689691
z
" clip-path="url(#pa2b0491a9c)" style="fill: none; stroke: #56b4e9; stroke-width: 0.6; stroke-linejoin: miter"/>
   </g>
   <g id="patch_31">
    <path d="M 301.523373 129.689691
L 326.431164 86.548132
L 276.615582 86.548132
L 301.523373 129.689691
z
" clip-path="url(#pa2b0491a9c)" style="fill: none; stroke: #56b4e9; stroke-width: 0.6; stroke-linejoin: miter"/>
   </g>
   <g id="patch_32">
    <path d="M 276.615582 86.548132
L 326.431164 86.548132
L 301.523373 43.406572
L 276.615582 86.548132
z
" clip-path="url(#pa2b0491a9c)" style="fill: none; stroke: #56b4e9; stroke-width: 0.6; stroke-linejoin: miter"/>
   </g>
   <g id="patch_33">
    <path d="M 226.8 259.11437
L 276.615582 259.11437
L 251.707791 215.97281
L 226.8 259.11437
z
" clip-path="url(#pa2b0491a9c)" style="fill: none; stroke: #56b4e9; stroke-width: 0.6; stroke-linejoin: miter"/>
   </g>
   <g id="patch_34">
    <path d="M 276.615582 259.11437
L 301.523373 215.97281
L 251.707791 215.97281
L 276.615582 259.11437
z
" clip-path="url(#pa2b0491a9c)" style="fill: none; stroke: #56b4e9; stroke-width: 0.6; stroke-linejoin: miter"/>
   </g>
   <g id="patch_35">
    <path d="M 251.707791 215.97281
L 301.523373 215.97281
L 276.615582 172.831251
L 251.707791 215.97281
z
" clip-path="url(#pa2b0491a9c)" style="fill: none; stroke: #56b4e9; stroke-width: 0.6; stroke-linejoin: miter"/>
   </g>
   <g id="patch_36">
    <path d="M 301.523373 215.97281
L 326.431164 172.831251
L 276.615582 172.831251
L 301.523373 215.97281
z
" clip-path="url(#pa2b0491a9c)" style="fill: none; stroke: #56b4e9; stroke-width: 0.6; stroke-linejoin: miter"/>
   </g>
   <g id="patch_37">
    <path d="M 276.615582 172.831251
L 326.431164 172.831251
L 301.523373 129.689691
L 276.615582 172.831251
z
" clip-path="url(#pa2b0491a9c)" style="fill: none; stroke: #56b4e9; stroke-width: 0.6; stroke-linejoin: miter"/>
   </g>
   <g id="patch_38">
    <path d="M 326.431164 172.831251
L 351.338955 129.689691
L 301.523373 129.689691
L 326.431164 172.831251
z
" clip-path="url(#pa2b0491a9c)" style="fill: none; stroke: #56b4e9; stroke-width: 0.6; stroke-linejoin: miter"/>
   </g>
   <g id="patch_39">
    <path d="M 301.523373 129.689691
L 351.338955 129.689691
L 326.431164 86.548132
L 301.523373 129.689691
z
" clip-path="url(#pa2b0491a9c)" style="fill: none; stroke: #56b4e9; stroke-width: 0.6; stroke-linejoin: miter"/>
   </g>
   <g id="patch_40">
    <path d="M 226.8 238.45763
C 251.831836 238.45763 275.841803 228.512376 293.541984 210.812195
C 311.242165 193.112014 321.187419 169.102047 321.187419 144.070211
C 321.187419 119.038375 311.242165 95.028408 293.541984 77.328227
C 275.841803 59.628046 251.831836 49.682792 226.8 49.682792
C 201.768164 49.682792 177.758197 59.628046 160.058016 77.328227
C 142.357835 95.028408 132.412581 119.038375 132.412581 144.070211
C 132.412581 169.102047 142.357835 193.112014 160.058016 210.812195
C 177.758197 228.512376 201.768164 238.45763 226.8 238.45763
L 226.8 238.45763
z
" clip-path="url(#pa2b0491a9c)" style="fill: none; stroke-dasharray: 2.22,0.96; stroke-dashoffset: 0; stroke: #222222; stroke-width: 0.6; stroke-linejoin: miter"/>
   </g>
   <g id="PathCollection_1">
    <defs>
     <path id="m18621de6b7" d="M 0 2.44949
C 0.649612 2.44949 1.272706 2.191396 1.732051 1.732051
C 2.191396 1.272706 2.44949 0.649612 2.44949 0
C 2.44949 -0.649612 2.191396 -1.272706 1.732051 -1.732051
C 1.272706 -2.191396 0.649612 -2.44949 0 -2.44949
C -0.649612 -2.44949 -1.272706 -2.191396 -1.732051 -1.732051
C -2.191396 -1.272706 -2.44949 -0.649612 -2.44949 0
C -2.44949 0.649612 -2.191396 1.272706 -1.732051 1.732051
C -1.272706 2.191396 -0.649612 2.44949 0 2.44949
z
" style="stroke: #0072b2; stroke-width: 0.6"/>
    </defs>
    <g clip-path="url(#pa2b0491a9c)">
     <use xlink:href="#m18621de6b7" x="276.615582" y="259.11437" style="fill: #0072b2; stroke: #0072b2; stroke-width: 0.6"/>
     <use xlink:href="#m18621de6b7" x="226.8" y="259.11437" style="fill: #0072b2; stroke: #0072b2; stroke-width: 0.6"/>
     <use xlink:href="#m18621de6b7" x="176.984418" y="259.11437" style="fill: #0072b2; stroke: #0072b2; stroke-width: 0.6"/>
     <use xlink:href="#m18621de6b7" x="152.076627" y="215.97281" style="fill: #0072b2; stroke: #0072b2; stroke-width: 0.6"/>
     <use xlink:href="#m18621de6b7" x="201.892209" y="215.97281" style="fill: #0072b2; stroke: #0072b2; stroke-width: 0.6"/>
     <use xlink:href="#m18621de6b7" x="251.707791" y="215.97281" style="fill: #0072b2; stroke: #0072b2; stroke-width: 0.6"/>
     <use xlink:href="#m18621de6b7" x="301.523373" y="215.97281" style="fill: #0072b2; stroke: #0072b2; stroke-width: 0.6"/>
     <use xlink:href="#m18621de6b7" x="326.431164" y="172.831251" style="fill: #0072b2; stroke: #0072b2; stroke-width: 0.6"/>
     <use xlink:href="#m18621de6b7" x="276.615582" y="172.831251" style="fill: #0072b2; stroke: #0072b2; stroke-width: 0.6"/>
     <use xlink:href="#m18621de6b7" x="226.8" y="172.831251" style="fill: #0072b2; stroke: #0072b2; stroke-width: 0.6"/>
     <use xlink:href="#m18621de6b7" x="176.984418" y="172.831251" style="fill: #0072b2; stroke: #0072b2; stroke-width: 0.6"/>
     <use xlink:href="#m18621de6b7" x="127.168836" y="172.831251" style="fill: #0072b2; stroke: #0072b2; stroke-width: 0.6"/>
     <use xlink:href="#m18621de6b7" x="102.261045" y="129.689691" style="fill: #0072b2; stroke: #0072b2; stroke-width: 0.6"/>
     <use xlink:href="#m18621de6b7" x="152.076627" y="129.689691" style="fill: #0072b2; stroke: #0072b2; stroke-width: 0.6"/>
     <use xlink:href="#m18621de6b7" x="201.892209" y="129.689691" style="fill: #0072b2; stroke: #0072b2; stroke-width: 0.6"/>
     <use xlink:href="#m18621de6b7" x="251.707791" y="129.689691" style="fill: #0072b2; stroke: #0072b2; stroke-width: 0.6"/>
     <use xlink:href="#m18621de6b7" x="301.523373" y="129.689691" style="fill: #0072b2; stroke: #0072b2; stroke-width: 0.6"/>
     <use xlink:href="#m18621de6b7" x="351.338955" y="129.689691" style="fill: #0072b2; stroke: #0072b2; stroke-width: 0.6"/>
     <use xlink:href="#m18621de6b7" x="326.431164" y="86.548132" style="fill: #0072b2; stroke: #0072b2; stroke-width: 0.6"/>
     <use xlink:href="#m18621de6b7" x="276.615582" y="86.548132" style="fill: #0072b2; stroke: #0072b2; stroke-width: 0.6"/>
     <use xlink:href="#m18621de6b7" x="226.8" y="86.548132" style="fill: #0072b2; stroke: #0072b2; stroke-width: 0.6"/>
     <use xlink:href="#m18621de6b7" x="176.984418" y="86.548132" style="fill: #0072b2; stroke: #0072b2; stroke-width: 0.6"/>
     <use xlink:href="#m18621de6b7" x="127.168836" y="86.548132" style="fill: #0072b2; stroke: #0072b2; stroke-width: 0.6"/>
     <use xlink:href="#m18621de6b7" x="152.076627" y="43.406572" style="fill: #0072b2; stroke: #0072b2; stroke-width: 0.6"/>
     <use xlink:href="#m18621de6b7" x="201.892209" y="43.406572" style="fill: #0072b2; stroke: #0072b2; stroke-width: 0.6"/>
     <use xlink:href="#m18621de6b7" x="251.707791" y="43.406572" style="fill: #0072b2; stroke: #0072b2; stroke-width: 0.6"/>
     <use xlink:href="#m18621de6b7" x="301.523373" y="43.406572" style="fill: #0072b2; stroke: #0072b2; stroke-width: 0.6"/>
    </g>
   </g>
   <g id="PathCollection_2">
    <defs>
     <path id="m01ae707a08" d="M 0 -4.1833
L -0.939209 -1.292711
L -3.978555 -1.292711
L -1.519673 0.493772
L -2.458882 3.384361
L -0 1.597878
L 2.458882 3.384361
L 1.519673 0.493772
L 3.978555 -1.292711
L 0.939209 -1.292711
z
" style="stroke: #d55e00; stroke-width: 0.6"/>
    </defs>
    <g clip-path="url(#pa2b0491a9c)">
     <use xlink:href="#m01ae707a08" x="226.8" y="144.070211" style="fill: #d55e00; stroke: #d55e00; stroke-width: 0.6"/>
    </g>
   </g>
   <g id="matplotlib.axis_1">
    <g id="xtick_1">
     <g id="line2d_1">
      <defs>
       <path id="mdcdbe71a09" d="M 0 0
L 0 3
" style="stroke: #000000; stroke-width: 0.6"/>
      </defs>
      <g>
       <use xlink:href="#mdcdbe71a09" x="121.92509" y="269.89976" style="stroke: #000000; stroke-width: 0.6"/>
      </g>
     </g>
     <g id="text_1">
      <text style="font-size: 9px; font-family: 'PingFang SC', 'Arial', 'Helvetica', 'DejaVu Sans', sans-serif; text-anchor: middle" x="121.92509" y="284.13976" transform="rotate(-0 121.92509 284.13976)">-2000</text>
     </g>
    </g>
    <g id="xtick_2">
     <g id="line2d_2">
      <g>
       <use xlink:href="#mdcdbe71a09" x="174.362545" y="269.89976" style="stroke: #000000; stroke-width: 0.6"/>
      </g>
     </g>
     <g id="text_2">
      <text style="font-size: 9px; font-family: 'PingFang SC', 'Arial', 'Helvetica', 'DejaVu Sans', sans-serif; text-anchor: middle" x="174.362545" y="284.13976" transform="rotate(-0 174.362545 284.13976)">-1000</text>
     </g>
    </g>
    <g id="xtick_3">
     <g id="line2d_3">
      <g>
       <use xlink:href="#mdcdbe71a09" x="226.8" y="269.89976" style="stroke: #000000; stroke-width: 0.6"/>
      </g>
     </g>
     <g id="text_3">
      <text style="font-size: 9px; font-family: 'PingFang SC', 'Arial', 'Helvetica', 'DejaVu Sans', sans-serif; text-anchor: middle" x="226.8" y="284.13976" transform="rotate(-0 226.8 284.13976)">0</text>
     </g>
    </g>
    <g id="xtick_4">
     <g id="line2d_4">
      <g>
       <use xlink:href="#mdcdbe71a09" x="279.237455" y="269.89976" style="stroke: #000000; stroke-width: 0.6"/>
      </g>
     </g>
     <g id="text_4">
      <text style="font-size: 9px; font-family: 'PingFang SC', 'Arial', 'Helvetica', 'DejaVu Sans', sans-serif; text-anchor: middle" x="279.237455" y="284.13976" transform="rotate(-0 279.237455 284.13976)">1000</text>
     </g>
    </g>
    <g id="xtick_5">
     <g id="line2d_5">
      <g>
       <use xlink:href="#mdcdbe71a09" x="331.67491" y="269.89976" style="stroke: #000000; stroke-width: 0.6"/>
      </g>
     </g>
     <g id="text_5">
      <text style="font-size: 9px; font-family: 'PingFang SC', 'Arial', 'Helvetica', 'DejaVu Sans', sans-serif; text-anchor: middle" x="331.67491" y="284.13976" transform="rotate(-0 331.67491 284.13976)">2000</text>
     </g>
    </g>
    <g id="text_6">
     <text style="font-size: 10px; font-family: 'PingFang SC', 'Arial', 'Helvetica', 'DejaVu Sans', sans-serif; text-anchor: middle" x="226.8" y="297.99976" transform="rotate(-0 226.8 297.99976)">x 坐标 (m)</text>
    </g>
   </g>
   <g id="matplotlib.axis_2">
    <g id="ytick_1">
     <g id="line2d_6">
      <defs>
       <path id="mb2a9ec5698" d="M 0 0
L -3 0
" style="stroke: #000000; stroke-width: 0.6"/>
      </defs>
      <g>
       <use xlink:href="#mb2a9ec5698" x="89.807149" y="248.945121" style="stroke: #000000; stroke-width: 0.6"/>
      </g>
     </g>
     <g id="text_7">
      <text style="font-size: 9px; font-family: 'PingFang SC', 'Arial', 'Helvetica', 'DejaVu Sans', sans-serif; text-anchor: end" x="83.307149" y="252.815121" transform="rotate(-0 83.307149 252.815121)">-2000</text>
     </g>
    </g>
    <g id="ytick_2">
     <g id="line2d_7">
      <g>
       <use xlink:href="#mb2a9ec5698" x="89.807149" y="196.507666" style="stroke: #000000; stroke-width: 0.6"/>
      </g>
     </g>
     <g id="text_8">
      <text style="font-size: 9px; font-family: 'PingFang SC', 'Arial', 'Helvetica', 'DejaVu Sans', sans-serif; text-anchor: end" x="83.307149" y="200.377666" transform="rotate(-0 83.307149 200.377666)">-1000</text>
     </g>
    </g>
    <g id="ytick_3">
     <g id="line2d_8">
      <g>
       <use xlink:href="#mb2a9ec5698" x="89.807149" y="144.070211" style="stroke: #000000; stroke-width: 0.6"/>
      </g>
     </g>
     <g id="text_9">
      <text style="font-size: 9px; font-family: 'PingFang SC', 'Arial', 'Helvetica', 'DejaVu Sans', sans-serif; text-anchor: end" x="83.307149" y="147.940211" transform="rotate(-0 83.307149 147.940211)">0</text>
     </g>
    </g>
    <g id="ytick_4">
     <g id="line2d_9">
      <g>
       <use xlink:href="#mb2a9ec5698" x="89.807149" y="91.632756" style="stroke: #000000; stroke-width: 0.6"/>
      </g>
     </g>
     <g id="text_10">
      <text style="font-size: 9px; font-family: 'PingFang SC', 'Arial', 'Helvetica', 'DejaVu Sans', sans-serif; text-anchor: end" x="83.307149" y="95.502756" transform="rotate(-0 83.307149 95.502756)">1000</text>
     </g>
    </g>
    <g id="ytick_5">
     <g id="line2d_10">
      <g>
       <use xlink:href="#mb2a9ec5698" x="89.807149" y="39.195301" style="stroke: #000000; stroke-width: 0.6"/>
      </g>
     </g>
     <g id="text_11">
      <text style="font-size: 9px; font-family: 'PingFang SC', 'Arial', 'Helvetica', 'DejaVu Sans', sans-serif; text-anchor: end" x="83.307149" y="43.065301" transform="rotate(-0 83.307149 43.065301)">2000</text>
     </g>
    </g>
    <g id="text_12">
     <text style="font-size: 10px; font-family: 'PingFang SC', 'Arial', 'Helvetica', 'DejaVu Sans', sans-serif; text-anchor: middle" x="50.282462" y="151.260471" transform="rotate(-90 50.282462 151.260471)">y 坐标 (m)</text>
    </g>
   </g>
   <g id="patch_41">
    <path d="M 89.807149 269.89976
L 89.807149 32.621182
" style="fill: none; stroke: #000000; stroke-width: 0.7; stroke-linejoin: miter; stroke-linecap: square"/>
   </g>
   <g id="patch_42">
    <path d="M 89.807149 269.89976
L 363.792851 269.89976
" style="fill: none; stroke: #000000; stroke-width: 0.7; stroke-linejoin: miter; stroke-linecap: square"/>
   </g>
   <g id="legend_1">
    <g id="patch_43">
     <path d="M 117.238359 14.342181
L 131.638359 14.342181
L 131.638359 8.042181
L 117.238359 8.042181
L 117.238359 14.342181
z
" style="fill: none; stroke-dasharray: 2.22,0.96; stroke-dashoffset: 0; stroke: #222222; stroke-width: 0.6; stroke-linejoin: miter"/>
    </g>
    <g id="text_13">
     <text style="font-size: 9px; font-family: 'PingFang SC', 'Arial', 'Helvetica', 'DejaVu Sans', sans-serif; text-anchor: start" x="138.838359" y="14.342181" transform="rotate(-0 138.838359 14.342181)">源区域边界</text>
    </g>
    <g id="PathCollection_3">
     <g>
      <use xlink:href="#m18621de6b7" x="209.038359" y="11.979681" style="fill: #0072b2; stroke: #0072b2; stroke-width: 0.6"/>
     </g>
    </g>
    <g id="text_14">
     <text style="font-size: 9px; font-family: 'PingFang SC', 'Arial', 'Helvetica', 'DejaVu Sans', sans-serif; text-anchor: start" x="223.438359" y="14.342181" transform="rotate(-0 223.438359 14.342181)">27个网格站</text>
    </g>
    <g id="PathCollection_4">
     <g>
      <use xlink:href="#m01ae707a08" x="294.961641" y="11.979681" style="fill: #d55e00; stroke: #d55e00; stroke-width: 0.6"/>
     </g>
    </g>
    <g id="text_15">
     <text style="font-size: 9px; font-family: 'PingFang SC', 'Arial', 'Helvetica', 'DejaVu Sans', sans-serif; text-anchor: start" x="309.361641" y="14.342181" transform="rotate(-0 309.361641 14.342181)">起点站</text>
    </g>
   </g>
  </g>
 </g>
 <defs>
  <clipPath id="pa2b0491a9c">
   <rect x="89.807149" y="32.621182" width="273.985702" height="237.278578"/>
  </clipPath>
 </defs>
</svg>
